<?xml version="1.0" encoding="UTF-8"?>
<!DOCTYPE svg PUBLIC "-//W3C//DTD SVG 1.1//EN" "http://www.w3.org/Graphics/SVG/1.1/DTD/svg11.dtd">
<!-- Creator: CorelDRAW 2020 (64-Bit Versión de evaluación) -->
<svg xmlns="http://www.w3.org/2000/svg" xml:space="preserve" width="176.389mm" height="176.389mm" version="1.1" style="shape-rendering:geometricPrecision; text-rendering:geometricPrecision; image-rendering:optimizeQuality; fill-rule:evenodd; clip-rule:evenodd"
viewBox="0 0 51879 51879"
 xmlns:xlink="http://www.w3.org/1999/xlink"
 xmlns:xodm="http://www.corel.com/coreldraw/odm/2003">
 <defs>
  <style type="text/css">
   <![CDATA[
    .str0 {stroke:white;stroke-width:5187.9;stroke-linecap:round;stroke-linejoin:round;stroke-miterlimit:22.9256}
    .fil1 {fill:none}
    .fil0 {fill:black}
   ]]>
  </style>
 </defs>
 <g id="Capa_x0020_1">
  <metadata id="CorelCorpID_0Corel-Layer"/>
  <g>
   <path id="arrow.svg" class="fil0" d="M28533.43 33721.33l7781.86 -7781.83 -7781.86 7781.83zm7781.86 -7781.83l-7781.86 -7781.83 7781.86 7781.83zm0 0l-20751.6 0 20751.6 0zm12969.73 0c0,12893.47 -10452.06,23345.53 -23345.53,23345.53 -12893.38,0 -23345.53,-10452.06 -23345.53,-23345.53 0,-12893.38 10452.15,-23345.53 23345.53,-23345.53 12893.47,0 23345.53,10452.15 23345.53,23345.53z"/>
   <path id="1" class="fil1 str0" d="M28533.43 33721.33l7781.86 -7781.83m0 0l-7781.86 -7781.83m7781.86 7781.83l-20751.6 0m33721.33 0c0,12893.47 -10452.06,23345.53 -23345.53,23345.53 -12893.38,0 -23345.53,-10452.06 -23345.53,-23345.53 0,-12893.38 10452.15,-23345.53 23345.53,-23345.53 12893.47,0 23345.53,10452.15 23345.53,23345.53z"/>
  </g>
 </g>
</svg>
